<svg viewBox="0 0 24 24" fill="currentColor" xmlns="http://www.w3.org/2000/svg">
  <path d="M12 0C5.373 0 0 5.373 0 12s5.373 12 12 12 12-5.373 12-12S18.627 0 12 0zm-.947 4.418c.088 0 .176.003.263.008 1.907.117 3.637.88 4.963 2.127.073.068.067.185-.012.246l-1.473 1.14a.157.157 0 0 1-.206-.015c-1.874-1.74-4.705-1.822-6.715-.186-2.23 1.816-2.562 5.097-.747 7.327 1.816 2.23 5.097 2.562 7.327.747.14-.114.27-.235.394-.361a.157.157 0 0 1 .21-.012l1.457 1.162c.076.06.08.176.01.243-1.93 1.867-4.637 2.569-7.275 1.788-3.59-1.064-5.702-4.757-4.716-8.371.877-3.213 3.8-5.487 7.12-5.843.134-.013.267-.006.4 0z"/>
</svg>
