<svg viewBox="0 0 24 24" fill="currentColor" xmlns="http://www.w3.org/2000/svg">
  <path d="M11.257.004A12 12 0 0 0 0 12a12 12 0 0 0 12 12 12 12 0 0 0 12-12A12 12 0 0 0 12.746.009L12.743 0h-.004c-.164.001-.326.003-.482.004zm.29 2.11a9.89 9.89 0 0 1 1.18.06l.034.007c.21.026.419.055.627.096.049.01.098.022.147.032a9.89 9.89 0 0 1 3.59 1.542l.095.075c.05.037.1.073.147.11 1.233.979 2.21 2.241 2.857 3.676l.01.02c.02.044.037.088.055.132.242.59.427 1.206.551 1.84.008.044.018.088.027.132.074.41.121.827.143 1.249.004.073.005.146.008.219a9.9 9.9 0 0 1-.192 2.32l-.009.049-.006.03-.004.012a9.89 9.89 0 0 1-.63 1.822l-.003.006a9.89 9.89 0 0 1-7.1 5.582A9.89 9.89 0 0 1 2.11 11.71c.002-.053.003-.106.006-.158.025-.437.073-.87.146-1.297l.006-.033a9.89 9.89 0 0 1 .35-1.406c.02-.062.04-.124.063-.186.21-.58.468-1.14.774-1.672l.003-.005.026-.044c.05-.084.1-.168.153-.25A9.89 9.89 0 0 1 9.4 2.435 9.89 9.89 0 0 1 11.547 2.114zm.213 4.227c-2.078 0-3.586.792-4.524 2.375l2.103 1.236c.622-.937 1.386-1.406 2.291-1.406.62 0 1.117.177 1.488.53.374.354.561.822.561 1.406 0 .61-.181 1.104-.544 1.48-.36.374-.864.561-1.51.561h-1.232v2.327h1.263c.682 0 1.236.187 1.66.561.425.375.638.876.638 1.503 0 .665-.2 1.184-.6 1.556-.4.37-.94.556-1.621.556-1.01 0-1.804-.468-2.38-1.406l-2.102 1.22c.905 1.598 2.42 2.435 4.554 2.435 1.44 0 2.636-.399 3.59-1.197.952-.8 1.428-1.848 1.428-3.147 0-.92-.253-1.7-.757-2.342-.504-.64-1.138-1.084-1.901-1.33v-.06c.636-.26 1.154-.681 1.554-1.263.4-.584.6-1.236.6-1.958 0-1.215-.436-2.18-1.308-2.897-.87-.72-1.99-1.078-3.361-1.078z"/>
</svg>
