<svg viewBox="0 0 24 24" fill="currentColor" xmlns="http://www.w3.org/2000/svg">
  <path d="M4.5 7.5C5.328 7.5 6 6.828 6 6s-.672-1.5-1.5-1.5S3 5.172 3 6s.672 1.5 1.5 1.5zm0 9c.828 0 1.5-.672 1.5-1.5s-.672-1.5-1.5-1.5S3 14.172 3 15s.672 1.5 1.5 1.5zm15-9C20.328 7.5 21 6.828 21 6s-.672-1.5-1.5-1.5S18 5.172 18 6s.672 1.5 1.5 1.5zm0 9c.828 0 1.5-.672 1.5-1.5s-.672-1.5-1.5-1.5-1.5.672-1.5 1.5.672 1.5 1.5 1.5zM12 3c.828 0 1.5-.672 1.5-1.5S12.828 0 12 0s-1.5.672-1.5 1.5S11.172 3 12 3zm0 21c.828 0 1.5-.672 1.5-1.5s-.672-1.5-1.5-1.5-1.5.672-1.5 1.5.672 1.5 1.5 1.5zM5.379 18.621L12 12l-6.621-6.621L3.621 7.137 8.485 12l-4.864 4.863 1.758 1.758zm13.242 0l1.758-1.758L15.515 12l4.864-4.863-1.758-1.758L12 12l6.621 6.621z"/>
</svg>
