<svg viewBox="0 0 24 24" fill="currentColor" xmlns="http://www.w3.org/2000/svg">
  <path d="M21.45 14.315c-.143.28-.334.532-.565.745a3.691 3.691 0 0 1-1.104.695 4.51 4.51 0 0 1-3.116-.016 3.79 3.79 0 0 1-2.135-2.078 3.571 3.571 0 0 1-.292-.96c-.011-.063-.036-.12-.076-.17a.276.276 0 0 0-.151-.094.287.287 0 0 0-.179.016.272.272 0 0 0-.137.12l-.027.046a.59.59 0 0 1-.063.09.548.548 0 0 1-.166.123.572.572 0 0 1-.378.057.56.56 0 0 1-.24-.116.535.535 0 0 1-.163-.252 7.69 7.69 0 0 1-.196-.65 6.96 6.96 0 0 1-.228-1.663c-.015-.694.07-1.387.251-2.057.132-.493.238-.854.247-1.01.04-.65-.02-1.302-.18-1.932a.55.55 0 0 0-.191-.3.537.537 0 0 0-.33-.12.538.538 0 0 0-.334.101.548.548 0 0 0-.212.283 6.53 6.53 0 0 0-.337 1.574c-.119.929-.099 1.87.057 2.79.057.325.127.65.21.972a.57.57 0 0 1-.014.378.557.557 0 0 1-.242.275.572.572 0 0 1-.378.057.56.56 0 0 1-.32-.207 1.17 1.17 0 0 1-.123-.191.29.29 0 0 0-.118-.117.263.263 0 0 0-.162-.027.275.275 0 0 0-.182.092 3.69 3.69 0 0 1-.906.69 3.828 3.828 0 0 1-1.125.45 4.502 4.502 0 0 1-3.122-.382 3.848 3.848 0 0 1-1.02-.793 3.62 3.62 0 0 1-.635-.948 4.424 4.424 0 0 1-.41-1.932c-.011-.66.093-1.315.303-1.94C2.05 5.95 2.247 5.388 2.552 4.864c.277-.477.57-.904.795-1.17A10.4 10.4 0 0 1 7.065.895a10.02 10.02 0 0 1 4.795-.104c.05.013.107.014.154-.003a.254.254 0 0 0 .12-.085L12.17.65a.274.274 0 0 1 .26-.095.28.28 0 0 1 .209.175c.08.191.165.378.259.562.244.478.52.938.823 1.38a.556.556 0 0 0 .266.2.568.568 0 0 0 .331.022.552.552 0 0 0 .277-.167.537.537 0 0 0 .136-.298c.029-.262.067-.523.115-.782a6.2 6.2 0 0 1 .628-1.748c.07-.132.145-.26.226-.385a.535.535 0 0 1 .281-.22.536.536 0 0 1 .355.01.54.54 0 0 1 .261.198c.097.145.188.294.27.447.23.44.404.906.511 1.388.05.225.086.453.106.682a.54.54 0 0 0 .147.318.556.556 0 0 0 .298.151.572.572 0 0 0 .333-.033.557.557 0 0 0 .257-.225 13.32 13.32 0 0 1 1.002-1.41c.095-.118.193-.234.295-.346a.26.26 0 0 1 .13-.084.255.255 0 0 1 .156.003c.047.015.091.043.125.082.032.038.053.085.063.133a10.1 10.1 0 0 1 2.063 3.943c.39 1.324.51 2.712.352 4.082a9.938 9.938 0 0 1-1.073 3.367z"/>
</svg>
