<svg viewBox="0 0 24 24" fill="currentColor" xmlns="http://www.w3.org/2000/svg">
  <path d="M0 0v24h24V0zm9.95 8.002h1.805c.061 0 .111.05.111.111v7.767c0 .061-.05.111-.111.111H9.95a.111.111 0 0 1-.11-.111V8.113c0-.061.05-.111.11-.111zm-3.475 0h1.805c.061 0 .111.05.111.111v7.767c0 .061-.05.111-.111.111H6.475a.111.111 0 0 1-.11-.111V8.113c0-.061.05-.111.11-.111zm6.949 0h1.806c.06 0 .11.05.11.111v7.767c0 .061-.05.111-.11.111h-1.806a.111.111 0 0 1-.111-.111V8.113c0-.061.05-.111.111-.111zm3.475 0h1.806c.06 0 .11.05.11.111v7.767c0 .061-.05.111-.11.111h-1.806a.111.111 0 0 1-.11-.111V8.113c0-.061.05-.111.11-.111z"/>
</svg>
