<svg viewBox="0 0 24 24" fill="currentColor" xmlns="http://www.w3.org/2000/svg">
  <path d="M6.302 6.778L5.022 6.3l-.397 1.055 1.28.478zM12 3.6c-4.636 0-8.4 3.764-8.4 8.4s3.764 8.4 8.4 8.4 8.4-3.764 8.4-8.4-3.764-8.4-8.4-8.4zm0 15.6c-3.973 0-7.2-3.227-7.2-7.2S8.027 4.8 12 4.8s7.2 3.227 7.2 7.2-3.227 7.2-7.2 7.2zM7.303 15.7l-.675.74 2.145 1.956.675-.74zm3.41-4.263l.887-.896-3.055-3.023-.887.896zm2.037.023l3.12-3.014-.877-.907-3.12 3.014zm2.477 4.24l-.675-.74-2.145 1.956.675.74zm2.071-8.922L18.578 6.3l-.397-1.055-1.28.478z"/>
</svg>
